<?xml version="1.0" standalone="no"?>
<!DOCTYPE svg PUBLIC "-//W3C//DTD SVG 20010904//EN"
 "http://www.w3.org/TR/2001/REC-SVG-20010904/DTD/svg10.dtd">
<svg version="1.0" xmlns="http://www.w3.org/2000/svg"
 width="780.000000pt" height="780.000000pt" viewBox="0 0 780.000000 780.000000"
 preserveAspectRatio="xMidYMid meet">
<metadata>
Created by potrace 1.14, written by Peter Selinger 2001-2017
</metadata>
<g transform="translate(0.000000,780.000000) scale(0.100000,-0.100000)"
fill="#000000" stroke="none">
<path d="M0 3900 l0 -3900 3900 0 3900 0 0 3900 0 3900 -3900 0 -3900 0 0
-3900z m3790 1335 l0 -455 -138 0 c-76 0 -141 -3 -145 -6 -7 -8 381 -649 393
-649 13 0 400 641 393 649 -4 3 -69 6 -145 6 l-138 0 0 455 0 455 880 0 880 0
0 -455 0 -455 -145 0 c-80 0 -145 -2 -145 -5 0 -2 123 -208 273 -457 150 -249
383 -635 517 -858 134 -223 250 -413 258 -422 13 -16 36 -18 199 -18 l183 0 0
-455 0 -455 -895 0 -895 0 0 455 0 455 156 0 c126 0 155 3 152 14 -4 18 -532
896 -538 896 -10 -1 -208 -338 -203 -344 4 -3 48 -6 100 -6 l93 0 0 -455 0
-455 -980 0 -980 0 0 455 0 455 93 0 c52 0 96 3 99 6 6 6 -193 344 -202 344
-7 0 -534 -878 -538 -896 -3 -11 26 -14 152 -14 l156 0 0 -455 0 -455 -895 0
-895 0 0 455 0 455 183 0 c163 0 186 2 199 18 9 9 209 339 445 732 237 393
469 779 516 857 47 78 83 144 80 147 -4 3 -69 6 -145 6 l-138 0 0 455 0 455
880 0 880 0 0 -455z"/>
</g>
</svg>
